<svg width="256" height="256" viewBox="0 0 256 256" xmlns="http://www.w3.org/2000/svg">
  <defs>
    <linearGradient id="g1" x1="0%" y1="0%" x2="100%" y2="100%">
      <stop offset="0%" stop-color="#0886d9"/>
      <stop offset="100%" stop-color="#4fd1ff"/>
    </linearGradient>
    <radialGradient id="glow" cx="50%" cy="40%" r="70%">
      <stop offset="0%" stop-color="#ffffff" stop-opacity="0.35"/>
      <stop offset="100%" stop-color="#ffffff" stop-opacity="0"/>
    </radialGradient>
    <filter id="glass" x="-20%" y="-20%" width="140%" height="140%">
      <feGaussianBlur in="SourceGraphic" stdDeviation="0.5" result="blur"/>
      <feColorMatrix in="blur" type="matrix" values="0 0 0 0 1  0 0 0 0 1  0 0 0 0 1  0 0 0 0.25 0" result="soft"/>
      <feBlend in="SourceGraphic" in2="soft" mode="normal"/>
    </filter>
  </defs>

  <!-- Background token -->
  <rect x="24" y="24" width="208" height="208" rx="28" fill="#0e1926"/>
  <rect x="24" y="24" width="208" height="208" rx="28" fill="url(#glow)"/>
  <rect x="24" y="24" width="208" height="208" rx="28" fill="none" stroke="white" stroke-opacity="0.12"/>

  <!-- Gradient accent ring -->
  <rect x="28" y="28" width="200" height="200" rx="26" fill="none" stroke="url(#g1)" stroke-width="2" opacity="0.9"/>

  <!-- Monogram TG -->
  <g filter="url(#glass)">
    <path d="M78 112h64c8 0 8-12 0-12H66c-7 0-14 6-14 14v28c0 16 14 30 30 30h60c8 0 8-12 0-12H84c-10 0-18-8-18-18v-18c0-6 5-12 12-12z" fill="url(#g1)" opacity="0.9"/>
    <path d="M178 88c-18 0-34 12-34 30v56h14v-20h22c18 0 32-12 32-30s-16-36-34-36zm0 14c11 0 20 9 20 22s-7 18-20 18h-20v-18c0-14 10-22 20-22z" fill="#e6f7ff" fill-opacity="0.92"/>
  </g>

  <!-- Wordmark -->
  <g transform="translate(28,210)">
    <rect x="0" y="-22" width="200" height="22" rx="10" fill="#ffffff" fill-opacity="0.06"/>
    <text x="100" y="-7" text-anchor="middle" font-family="Inter, system-ui, -apple-system, Segoe UI, Roboto" font-size="16" font-weight="600" fill="#e8f6ff" fill-opacity="0.92" letter-spacing="1.2">TG CARGO</text>
  </g>
</svg>